# xmcd
#
# Track frame offsets:
#	150
#	21082
#	50140
#	72566
#	93549
#	118670
#	136379
#	165895
#	187294
#	214941
#	240693
#	265736
#
# Disc length: 3878 seconds
#
# Revision: 1
# Processed by: cddbd v1.5.2PL0 Copyright (c) Steve Scherf et al.
# Submitted via: EZCDAudioConverter 8.0.2.1
#
DISCID=b50f240c
DTITLE=Như Quỳnh - Khúc Ca Đồng Tháp
DYEAR=2004
DGENRE=Miscellaneous
TTITLE0=Như Quỳnh - Trang nhật ký
TTITLE1=Như Quỳnh - Bão rừng
TTITLE2=Như Quỳnh, Trường Vũ - Bao giờ em quên
TTITLE3=Như Quỳnh - Chỉ lad phù du
TTITLE4=Như Quỳnh, Thế Sơn - LK Giọng ca dĩ vãng, Giọt lệ đài trang
TTITLE5=Như Quỳnh - Dựng một mùa hoa
TTITLE6=Như Quỳnh - Nửa vầng trăng
TTITLE7=Như Quỳnh - Huế buồn
TTITLE8=Như Quỳnh - Sao trời lấp lánh
TTITLE9=Như Quỳnh, Thế Sơn - LK Tàu đêm năm cũ, Hai chuyến tàu đêm
TTITLE10=Như Quỳnh - CHuyện phim buồn
TTITLE11=Như Quỳnh - Khúc ca Đồng Tháp
EXTD=
EXTT0=
EXTT1=
EXTT2=
EXTT3=
EXTT4=
EXTT5=
EXTT6=
EXTT7=
EXTT8=
EXTT9=
EXTT10=
EXTT11=
PLAYORDER=
